<svg width="56" height="56" viewBox="0 0 56 56" fill="none" xmlns="http://www.w3.org/2000/svg">
<path d="M44.9633 12.4367C41.86 10.99 38.5 9.94003 35 9.33336C34.9693 9.33238 34.9388 9.33814 34.9106 9.35023C34.8823 9.36233 34.8571 9.38046 34.8367 9.40336C34.4167 10.1734 33.9267 11.1767 33.6 11.9467C29.8877 11.3867 26.1123 11.3867 22.4 11.9467C22.0733 11.1534 21.5833 10.1734 21.14 9.40336C21.1167 9.35669 21.0467 9.33336 20.9767 9.33336C17.4767 9.94003 14.14 10.99 11.0133 12.4367C10.99 12.4367 10.9667 12.46 10.9433 12.4834C4.59666 21.98 2.84666 31.22 3.70999 40.3667C3.70999 40.4134 3.73332 40.46 3.77999 40.4834C7.97999 43.5634 12.0167 45.43 16.0067 46.6667C16.0767 46.69 16.1467 46.6667 16.17 46.62C17.1033 45.3367 17.9433 43.9834 18.6667 42.56C18.7133 42.4667 18.6667 42.3734 18.5733 42.35C17.2433 41.8367 15.9833 41.23 14.7467 40.53C14.6533 40.4834 14.6533 40.3434 14.7233 40.2734C14.98 40.0867 15.2367 39.8767 15.4933 39.69C15.54 39.6434 15.61 39.6434 15.6567 39.6667C23.6833 43.33 32.34 43.33 40.2733 39.6667C40.32 39.6434 40.39 39.6434 40.4367 39.69C40.6933 39.9 40.95 40.0867 41.2067 40.2967C41.3 40.3667 41.3 40.5067 41.1833 40.5534C39.97 41.2767 38.6867 41.86 37.3567 42.3734C37.2633 42.3967 37.24 42.5134 37.2633 42.5834C38.01 44.0067 38.85 45.36 39.76 46.6434C39.83 46.6667 39.9 46.69 39.97 46.6667C43.9833 45.43 48.02 43.5634 52.22 40.4834C52.2667 40.46 52.29 40.4134 52.29 40.3667C53.3167 29.7967 50.5867 20.6267 45.0567 12.4834C45.0333 12.46 45.01 12.4367 44.9633 12.4367ZM19.88 34.79C17.4767 34.79 15.47 32.5734 15.47 29.8434C15.47 27.1134 17.43 24.8967 19.88 24.8967C22.3533 24.8967 24.3133 27.1367 24.29 29.8434C24.29 32.5734 22.33 34.79 19.88 34.79ZM36.1433 34.79C33.74 34.79 31.7333 32.5734 31.7333 29.8434C31.7333 27.1134 33.6933 24.8967 36.1433 24.8967C38.6167 24.8967 40.5767 27.1367 40.5533 29.8434C40.5533 32.5734 38.6167 34.79 36.1433 34.79Z" fill="white"/>
</svg>
