<svg width="56" height="56" viewBox="0 0 56 56" fill="none" xmlns="http://www.w3.org/2000/svg">
<path d="M28 4.66675C24.9358 4.66675 21.9016 5.27028 19.0707 6.44289C16.2398 7.6155 13.6675 9.33422 11.5008 11.5009C7.12498 15.8768 4.66666 21.8117 4.66666 28.0001C4.66666 38.3134 11.3633 47.0634 20.6267 50.1667C21.7933 50.3534 22.1667 49.6301 22.1667 49.0001V45.0567C15.7033 46.4567 14.3267 41.9301 14.3267 41.9301C13.2533 39.2234 11.7367 38.5001 11.7367 38.5001C9.61332 37.0534 11.9 37.1001 11.9 37.1001C14.2333 37.2634 15.47 39.5034 15.47 39.5034C17.5 43.0501 20.93 42.0001 22.26 41.4401C22.47 39.9234 23.0767 38.8967 23.73 38.3134C18.55 37.7301 13.1133 35.7234 13.1133 26.8334C13.1133 24.2434 14 22.1667 15.5167 20.5101C15.2833 19.9267 14.4667 17.5001 15.75 14.3501C15.75 14.3501 17.71 13.7201 22.1667 16.7301C24.01 16.2167 26.0167 15.9601 28 15.9601C29.9833 15.9601 31.99 16.2167 33.8333 16.7301C38.29 13.7201 40.25 14.3501 40.25 14.3501C41.5333 17.5001 40.7167 19.9267 40.4833 20.5101C42 22.1667 42.8867 24.2434 42.8867 26.8334C42.8867 35.7467 37.4267 37.7067 32.2233 38.2901C33.0633 39.0134 33.8333 40.4367 33.8333 42.6067V49.0001C33.8333 49.6301 34.2067 50.3767 35.3967 50.1667C44.66 47.0401 51.3333 38.3134 51.3333 28.0001C51.3333 24.9359 50.7298 21.9017 49.5572 19.0708C48.3846 16.2399 46.6659 13.6676 44.4991 11.5009C42.3325 9.33422 39.7602 7.6155 36.9293 6.44289C34.0983 5.27028 31.0642 4.66675 28 4.66675Z" fill="white"/>
</svg>
