<svg width="1233" height="872" viewBox="0 0 1233 872" fill="none" xmlns="http://www.w3.org/2000/svg">
<path d="M0 682H259C269.493 682 278 673.493 278 663V550.5C278 540.007 286.507 531.5 297 531.5H388.5M0 107H302C312.493 107 321 115.507 321 126V212C321 222.493 329.507 231 340 231H469.5M645.5 0V164M1233 107H1097.5C1087.01 107 1078.5 115.507 1078.5 126V280.5C1078.5 290.993 1069.99 299.5 1059.5 299.5H880M1233 495.5H1117H913.5M1233 870H765C754.507 870 746 861.493 746 851V823V691M0 870H466C476.493 870 485 861.493 485 851V658.5" stroke="#6D6D6D" stroke-width="4"/>
</svg>
