<svg width="1233" height="872" viewBox="0 0 1233 872" fill="none" xmlns="http://www.w3.org/2000/svg">
<path d="M0 682H259C269.493 682 278 673.493 278 663V550.5C278 540.007 286.507 531.5 297 531.5H388.5M0 107H302C312.493 107 321 115.507 321 126V212C321 222.493 329.507 231 340 231H469.5M645.5 0V164M882 300.5H1054.5C1064.99 300.5 1073.5 291.993 1073.5 281.5V91.5C1073.5 81.0066 1082.01 72.5 1092.5 72.5H1233M911.5 495.5H1117H1233M746 689.5V851C746 861.493 754.507 870 765 870H1101.5H1233M0 870H466C476.493 870 485 861.493 485 851V658.5" stroke="#6D6D6D" stroke-width="4"/>
</svg>
