<svg width="132" height="144" viewBox="0 0 132 144" fill="none" xmlns="http://www.w3.org/2000/svg">
<g clip-path="url(#clip0_6_2)">
<path d="M62.0232 137.603L55.629 144L4.40124 92.7501C1.60678 89.9544 0.0368786 86.1627 0.0368786 82.209C0.0368786 78.2554 1.60678 74.4636 4.40124 71.668C7.17901 69.7389 10.609 68.9928 13.9367 69.5937C17.2643 70.1947 20.2171 72.0935 22.1453 74.8725L62.0232 114.768C65.05 117.796 66.7505 121.903 66.7505 126.185C66.7505 130.468 65.05 134.575 62.0232 137.603Z" fill="#2CB7FB"/>
<path d="M55.6289 20.4181L63.4763 28.2689C66.1178 30.9115 67.6017 34.4956 67.6017 38.2328C67.6017 41.97 66.1178 45.5541 63.4763 48.1967L11.6717 100.024L4.33831 92.6872C1.56054 89.9082 3.34738e-06 86.1391 5.03288e-06 82.2091C6.88694e-06 78.279 1.56054 74.5099 4.33831 71.7309L55.6289 20.4181Z" fill="#80D5FF"/>
<path d="M62.0232 137.603L55.629 144L4.40124 92.7501C1.60678 89.9544 0.0368786 86.1627 0.0368786 82.209C0.0368786 78.2554 1.60678 74.4636 4.40124 71.668C7.17901 69.7389 10.609 68.9928 13.9367 69.5937C17.2643 70.1947 20.2171 72.0935 22.1453 74.8725L62.0232 114.768C65.05 117.796 66.7505 121.903 66.7505 126.185C66.7505 130.468 65.05 134.575 62.0232 137.603Z" fill="#2CB7FB"/>
<path d="M55.6289 20.4181L63.4763 28.2689C66.1178 30.9115 67.6017 34.4956 67.6017 38.2328C67.6017 41.97 66.1178 45.5541 63.4763 48.1967L11.6717 100.024L4.33831 92.6872C1.56054 89.9082 3.34738e-06 86.1391 5.03288e-06 82.2091C6.88694e-06 78.279 1.56054 74.5099 4.33831 71.7309L55.6289 20.4181Z" fill="#80D5FF"/>
<path d="M69.9768 117.185L76.371 123.582L127.599 72.332C130.393 69.5363 131.963 65.7446 131.963 61.7909C131.963 57.8373 130.393 54.0455 127.599 51.2498C126.223 50.2947 124.673 49.6199 123.037 49.264C121.401 48.9081 119.711 48.878 118.063 49.1756C116.416 49.4732 114.843 50.0925 113.434 50.9982C112.026 51.904 110.809 53.0783 109.855 54.4543L69.9768 94.3495C68.4781 95.8489 67.2892 97.6289 66.4781 99.588C65.667 101.547 65.2495 103.647 65.2495 105.767C65.2495 107.888 65.667 109.987 66.4781 111.946C67.2892 113.905 68.4781 115.685 69.9768 117.185Z" fill="#CA35FF"/>
<path d="M76.3711 0L68.5237 7.85078C65.8822 10.4934 64.3983 14.0775 64.3983 17.8147C64.3983 21.5519 65.8822 25.136 68.5237 27.7786L120.328 79.6056L127.662 72.2691C130.439 69.4901 132 65.721 132 61.791C132 57.8609 130.439 54.0918 127.662 51.3128L76.3711 0Z" fill="#8700FF"/>
</g>
<defs>
<clipPath id="clip0_6_2">
<rect width="132" height="144" fill="white"/>
</clipPath>
</defs>
</svg>
