<svg width="56" height="56" viewBox="0 0 56 56" fill="none" xmlns="http://www.w3.org/2000/svg">
    <path d="M44.45 11.4566C42.3108 9.2958 39.7628 7.58253 36.9545 6.41676C34.1462 5.25099 31.1339 4.65605 28.0933 4.66664C15.3533 4.66664 4.97001 15.05 4.97001 27.79C4.97001 31.8733 6.04334 35.84 8.05001 39.34L4.78334 51.3333L17.0333 48.1133C20.4167 49.9566 24.22 50.9366 28.0933 50.9366C40.8333 50.9366 51.2167 40.5533 51.2167 27.8133C51.2167 21.63 48.8133 15.82 44.45 11.4566ZM28.0933 47.0166C24.64 47.0166 21.2567 46.0833 18.2933 44.3333L17.5933 43.9133L10.3133 45.8266L12.25 38.7333L11.7833 38.01C9.86475 34.9462 8.846 31.4049 8.84334 27.79C8.84334 17.1966 17.4767 8.56331 28.07 8.56331C33.2033 8.56331 38.0333 10.57 41.65 14.21C43.4408 15.9926 44.86 18.1129 45.8253 20.448C46.7906 22.7831 47.2828 25.2866 47.2733 27.8133C47.32 38.4066 38.6867 47.0166 28.0933 47.0166ZM38.64 32.6433C38.0567 32.3633 35.21 30.9633 34.6967 30.7533C34.16 30.5666 33.7867 30.4733 33.39 31.0333C32.9933 31.6166 31.8967 32.9233 31.57 33.2966C31.2433 33.6933 30.8933 33.74 30.31 33.4366C29.7267 33.1566 27.86 32.5266 25.6667 30.5666C23.94 29.0266 22.7967 27.1366 22.4467 26.5533C22.12 25.97 22.4 25.6666 22.7033 25.3633C22.96 25.1066 23.2867 24.6866 23.5667 24.36C23.8467 24.0333 23.9633 23.7766 24.15 23.4033C24.3367 23.0066 24.2433 22.68 24.1033 22.4C23.9633 22.12 22.7967 19.2733 22.33 18.1066C21.8633 16.9866 21.3733 17.1266 21.0233 17.1033H19.9033C19.5067 17.1033 18.9 17.2433 18.3633 17.8266C17.85 18.41 16.3567 19.81 16.3567 22.6566C16.3567 25.5033 18.4333 28.2566 18.7133 28.63C18.9933 29.0266 22.7967 34.86 28.5833 37.3566C29.96 37.9633 31.0333 38.3133 31.8733 38.57C33.25 39.0133 34.51 38.9433 35.5133 38.8033C36.6333 38.64 38.9433 37.4033 39.41 36.05C39.9 34.6966 39.9 33.5533 39.7367 33.2966C39.5733 33.04 39.2233 32.9233 38.64 32.6433Z" fill="white"/>
</svg>
